<?xml version="1.0" standalone="no"?>
<!DOCTYPE svg PUBLIC "-//W3C//DTD SVG 20010904//EN"
 "http://www.w3.org/TR/2001/REC-SVG-20010904/DTD/svg10.dtd">
<svg version="1.0" xmlns="http://www.w3.org/2000/svg"
 width="268.000000pt" height="188.000000pt" viewBox="0 0 268.000000 188.000000"
 preserveAspectRatio="xMidYMid meet">

<g transform="translate(0.000000,188.000000) scale(0.100000,-0.100000)"
fill="#000000" stroke="none">
<path d="M907 1400 c-5 -19 0 -20 84 -20 49 0 89 -3 89 -7 0 -5 7 -84 15 -178
8 -93 15 -173 15 -177 0 -4 -66 -9 -147 -10 -131 -3 -148 -5 -151 -20 -3 -17
16 -18 283 -18 246 0 286 -2 291 -15 15 -38 -11 -44 -194 -47 -159 -3 -177 -5
-180 -20 -3 -17 11 -18 191 -18 161 0 197 -3 207 -15 10 -12 10 -18 0 -30 -10
-11 -46 -15 -179 -17 -164 -3 -166 -3 -169 -25 -3 -23 -3 -23 137 -23 131 0
141 -1 141 -19 0 -37 -21 -41 -236 -43 -190 -3 -209 -5 -212 -20 -3 -16 8 -18
122 -18 l126 0 0 -25 0 -25 305 0 c193 0 305 4 305 10 0 6 -100 11 -265 12
-166 2 -266 7 -268 13 -1 6 98 12 276 15 l278 5 133 270 132 270 -430 5 -431
5 -2 40 c-2 22 -6 68 -9 103 l-6 62 -123 0 c-114 0 -123 -1 -128 -20z"/>
<path d="M647 903 c-4 -3 -7 -12 -7 -20 0 -20 296 -19 303 1 3 8 3 17 0 20 -9
8 -288 8 -296 -1z"/>
<path d="M730 795 c-24 -29 0 -35 134 -35 105 0 136 3 146 15 24 29 0 35 -134
35 -105 0 -136 -3 -146 -15z"/>
<path d="M666 685 c-8 -22 10 -26 90 -23 56 2 69 6 72 21 3 15 -6 17 -76 17
-63 0 -81 -3 -86 -15z"/>
<path d="M1096 569 c-37 -29 -35 -92 4 -100 32 -7 70 12 85 42 15 28 15 33 0
55 -19 30 -53 31 -89 3z"/>
<path d="M1645 565 c-32 -31 -32 -70 -1 -90 28 -19 66 -8 90 27 46 66 -32 121
-89 63z"/>
</g>
</svg>
